<?xml version="1.0" encoding="UTF-8" standalone="no"?>
<svg
   xmlns:dc="http://purl.org/dc/elements/1.1/"
   xmlns:cc="http://creativecommons.org/ns#"
   xmlns:rdf="http://www.w3.org/1999/02/22-rdf-syntax-ns#"
   xmlns:svg="http://www.w3.org/2000/svg"
   xmlns="http://www.w3.org/2000/svg"
   id="svg39300"
   version="1.1"
   viewBox="0 0 86.673531 31.522457"
   height="119.13999"
   width="327.58499">
  <defs
     id="defs39294" />
  <metadata
     id="metadata39297">
    <rdf:RDF>
      <cc:Work
         rdf:about="">
        <dc:format>image/svg+xml</dc:format>
        <dc:type
           rdf:resource="http://purl.org/dc/dcmitype/StillImage" />
        <dc:title></dc:title>
      </cc:Work>
    </rdf:RDF>
  </metadata>
  <g
     transform="translate(77.354622,13.493372)"
     id="layer1">
    <g
       transform="matrix(0.26458333,0,0,0.26458333,-83.473376,-17.192776)"
       id="g330">
      <rect
         x="88.897003"
         y="90.751999"
         transform="matrix(0.7071,-0.7071,0.7071,0.7071,-38.402,95.112)"
         width="13.425"
         height="6.3189998"
         id="rect320" />
      <rect
         x="59.577999"
         y="90.751999"
         transform="matrix(-0.7071,-0.7071,0.7071,-0.7071,46.7588,207.1909)"
         width="13.425"
         height="6.3189998"
         id="rect322" />
      <rect
         x="73.594002"
         y="43.134998"
         width="15.035"
         height="6.3179998"
         id="rect324" />
      <rect
         x="49.898998"
         y="61.376999"
         transform="matrix(-0.2594,0.9658,-0.9658,-0.2594,133.9953,26.3211)"
         width="14.014"
         height="6.3179998"
         id="rect326" />
      <rect
         x="98.513"
         y="61.216"
         transform="matrix(0.2594,0.9658,-0.9658,0.2594,140.3166,-54.2334)"
         width="14.014"
         height="6.3179998"
         id="rect328" />
    </g>
    <g
       transform="matrix(0.26458333,0,0,0.26458333,-83.473376,-17.192776)"
       id="g376">
      <g
         id="g348">
        <path
           d="m 167.508,129.65 c -0.765,0.364 -1.709,0.656 -2.828,0.875 -1.123,0.218 -2.321,0.329 -3.597,0.329 -1.35,0 -2.566,-0.116 -3.65,-0.343 -1.087,-0.229 -2.01,-0.671 -2.775,-1.327 -0.765,-0.656 -1.359,-1.579 -1.778,-2.775 -0.42,-1.194 -0.631,-2.756 -0.631,-4.69 0,-1.932 0.211,-3.494 0.631,-4.69 0.419,-1.193 1.013,-2.117 1.778,-2.774 0.765,-0.656 1.688,-1.099 2.775,-1.327 1.084,-0.227 2.3,-0.341 3.65,-0.341 2.552,0 4.603,0.364 6.152,1.094 l -0.902,2.817 c -0.53,-0.166 -1.249,-0.369 -2.161,-0.617 -0.911,-0.244 -1.922,-0.367 -3.034,-0.367 -0.748,0 -1.442,0.053 -2.078,0.164 -0.64,0.11 -1.191,0.374 -1.655,0.792 -0.466,0.421 -0.829,1.043 -1.095,1.873 -0.263,0.831 -0.396,1.956 -0.396,3.377 0,1.441 0.133,2.578 0.396,3.404 0.266,0.831 0.628,1.451 1.095,1.861 0.464,0.41 1.016,0.668 1.655,0.777 0.636,0.111 1.33,0.167 2.078,0.167 0.548,0 1.093,-0.042 1.639,-0.124 0.548,-0.083 1.058,-0.18 1.533,-0.287 0.473,-0.11 0.91,-0.228 1.311,-0.358 0.402,-0.126 0.729,-0.235 0.985,-0.325 z"
           id="path332" />
        <path
           d="m 189.236,130.497 v -7.846 h -7.111 v 7.846 h -3.582 v -17.553 h 3.582 v 6.726 h 7.111 v -6.726 h 3.58 v 17.553 z"
           id="path334" />
        <path
           d="m 206.519,130.497 v -17.553 h 13.125 l -0.272,2.925 h -9.244 v 4.073 h 7.189 v 2.927 h -7.189 v 4.676 h 9.517 l -0.272,2.952 z"
           id="path336" />
        <path
           d="M 248.345,130.497 V 119.78 h -0.083 l -4.047,10.717 h -3.771 l -4.047,-10.717 h -0.083 v 10.717 h -3.5 v -17.553 h 4.047 l 4.323,10.444 1.148,2.85 1.146,-2.85 4.32,-10.444 h 4.047 v 17.553 z"
           id="path338" />
        <path
           d="m 276.416,130.497 -7.081,-11.593 v 11.593 h -3.5 v -17.553 h 3.827 l 7.081,11.54 v -11.54 h 3.473 v 17.553 z"
           id="path340" />
        <path
           d="m 293.81,130.497 v -17.553 h 3.606 v 17.553 z"
           id="path342" />
        <path
           d="M 315.398,130.497 V 115.87 h -5.388 l 0.273,-2.925 h 14.462 l -0.269,2.925 h -5.473 v 14.627 z"
           id="path344" />
        <path
           d="m 336.304,130.497 v -3.199 l 10.364,-11.429 h -9.816 l 0.272,-2.925 h 13.262 v 3.089 l -10.5,11.512 h 10.825 l -0.273,2.952 z"
           id="path346" />
      </g>
      <g
         id="g360">
        <path
           d="m 180.668,26.374 c -0.519,-0.186 -1.202,-0.391 -2.053,-0.611 -0.852,-0.222 -1.795,-0.436 -2.831,-0.638 -1.036,-0.204 -2.127,-0.37 -3.274,-0.5 -1.147,-0.13 -2.275,-0.194 -3.387,-0.194 -2.219,0 -3.894,0.276 -5.022,0.833 -1.13,0.554 -1.694,1.553 -1.694,2.996 0,0.852 0.028,1.5 0.083,1.943 0.057,0.444 0.204,0.805 0.446,1.082 0.24,0.277 0.61,0.509 1.107,0.694 0.5,0.187 1.176,0.407 2.027,0.667 2.072,0.519 4.153,0.99 6.245,1.415 2.088,0.426 3.986,1.027 5.687,1.803 1.704,0.777 3.101,1.869 4.192,3.275 1.091,1.407 1.656,3.35 1.694,5.829 0,2.146 -0.354,3.895 -1.056,5.244 -0.703,1.353 -1.685,2.416 -2.941,3.191 -1.259,0.777 -2.766,1.306 -4.524,1.583 -1.756,0.275 -3.691,0.416 -5.798,0.416 -1.296,0 -2.666,-0.066 -4.108,-0.193 -1.443,-0.132 -2.857,-0.327 -4.246,-0.586 -1.389,-0.258 -2.692,-0.544 -3.913,-0.859 -1.222,-0.313 -2.24,-0.675 -3.053,-1.082 0.296,-1.11 0.574,-2.119 0.833,-3.026 0.259,-0.905 0.556,-1.84 0.889,-2.802 0.554,0.222 1.285,0.48 2.193,0.776 0.904,0.297 1.969,0.576 3.19,0.833 1.22,0.258 2.571,0.481 4.052,0.667 1.48,0.184 3.033,0.276 4.662,0.276 1.033,0 1.971,-0.027 2.803,-0.083 0.831,-0.056 1.545,-0.213 2.136,-0.472 0.591,-0.26 1.038,-0.674 1.333,-1.249 0.297,-0.573 0.443,-1.378 0.443,-2.414 0,-0.777 -0.073,-1.407 -0.22,-1.887 -0.15,-0.482 -0.399,-0.86 -0.751,-1.139 -0.353,-0.277 -0.815,-0.5 -1.389,-0.666 -0.571,-0.166 -1.267,-0.341 -2.08,-0.526 -3.108,-0.667 -5.753,-1.267 -7.937,-1.805 -2.184,-0.537 -3.95,-1.229 -5.3,-2.082 -1.351,-0.849 -2.331,-1.96 -2.943,-3.329 -0.609,-1.37 -0.912,-3.221 -0.912,-5.552 0,-1.628 0.339,-3.053 1.024,-4.273 0.686,-1.221 1.628,-2.229 2.831,-3.024 1.202,-0.797 2.59,-1.396 4.161,-1.806 1.573,-0.405 3.249,-0.61 5.023,-0.61 1.296,0 2.618,0.047 3.969,0.14 1.352,0.092 2.654,0.231 3.915,0.416 1.256,0.184 2.432,0.407 3.523,0.666 1.092,0.259 2.025,0.572 2.803,0.942 z"
           id="path350" />
        <path
           d="M 190.713,54.792 V 19.158 h 14.375 c 2.628,0 4.828,0.138 6.605,0.416 1.777,0.279 3.2,0.824 4.272,1.636 1.075,0.815 1.844,1.972 2.304,3.471 0.467,1.497 0.694,3.467 0.694,5.911 0,2.441 -0.227,4.413 -0.694,5.911 -0.46,1.5 -1.229,2.646 -2.304,3.441 -1.072,0.794 -2.496,1.331 -4.272,1.609 -1.778,0.279 -3.977,0.416 -6.605,0.416 h -7.048 v 12.824 h -7.327 z m 20.759,-24.367 c 0,-1.259 -0.112,-2.249 -0.33,-2.969 -0.225,-0.723 -0.576,-1.258 -1.059,-1.611 -0.479,-0.35 -1.127,-0.563 -1.941,-0.638 -0.817,-0.075 -1.796,-0.11 -2.942,-0.11 h -7.159 V 36.03 h 7.159 c 1.146,0 2.125,-0.036 2.942,-0.111 0.813,-0.074 1.461,-0.286 1.941,-0.639 0.482,-0.351 0.833,-0.877 1.059,-1.582 0.218,-0.701 0.33,-1.683 0.33,-2.94 z"
           id="path352" />
        <path
           d="M 223.739,54.792 V 19.158 h 7.326 v 35.634 z"
           id="path354" />
        <path
           d="M 239.836,54.792 V 19.158 h 26.638 l -0.553,5.939 h -18.763 v 8.27 h 14.6 v 5.939 h -14.6 v 9.49 h 19.315 l -0.553,5.997 h -26.084 z"
           id="path356" />
        <path
           d="M 271.249,54.792 V 19.158 h 7.271 v 29.638 h 17.871 l -0.556,5.997 h -24.586 z"
           id="path358" />
      </g>
      <g
         id="g374">
        <path
           d="m 182.093,99.17 c -1.554,0.74 -3.47,1.331 -5.745,1.775 -2.276,0.447 -4.71,0.667 -7.299,0.667 -2.738,0 -5.208,-0.23 -7.411,-0.693 -2.201,-0.463 -4.079,-1.361 -5.632,-2.692 -1.555,-1.333 -2.756,-3.211 -3.607,-5.635 -0.854,-2.422 -1.277,-5.596 -1.277,-9.519 0,-3.921 0.424,-7.094 1.277,-9.518 0.851,-2.424 2.052,-4.303 3.607,-5.633 1.553,-1.333 3.431,-2.229 5.632,-2.691 2.202,-0.462 4.672,-0.695 7.411,-0.695 5.18,0 9.343,0.74 12.487,2.219 l -1.831,5.719 c -1.074,-0.335 -2.535,-0.751 -4.384,-1.25 -1.85,-0.501 -3.906,-0.75 -6.161,-0.75 -1.519,0 -2.923,0.111 -4.219,0.334 -1.297,0.221 -2.415,0.758 -3.358,1.608 -0.944,0.852 -1.682,2.119 -2.221,3.803 -0.536,1.683 -0.804,3.967 -0.804,6.854 0,2.923 0.269,5.227 0.804,6.91 0.539,1.685 1.276,2.943 2.221,3.774 0.943,0.833 2.061,1.359 3.358,1.582 1.296,0.223 2.701,0.334 4.219,0.334 1.109,0 2.218,-0.085 3.329,-0.25 1.111,-0.168 2.145,-0.363 3.107,-0.583 0.963,-0.222 1.851,-0.461 2.667,-0.721 0.811,-0.26 1.48,-0.482 1.995,-0.668 z"
           id="path362" />
        <path
           d="M 188.474,100.892 V 65.259 h 26.644 l -0.557,5.938 h -18.76 v 8.27 h 14.597 v 5.939 h -14.597 v 9.49 h 19.317 l -0.557,5.996 z"
           id="path364" />
        <path
           d="M 241.37,100.892 226.996,77.358 v 23.534 h -7.105 V 65.259 h 7.769 l 14.376,23.419 V 65.259 h 7.048 v 35.632 h -7.714 z"
           id="path366" />
        <path
           d="M 264.849,100.892 V 71.197 h -10.937 l 0.555,-5.938 h 29.363 l -0.558,5.938 h -11.098 v 29.694 h -7.325 z"
           id="path368" />
        <path
           d="M 288.048,100.892 V 65.259 h 26.641 l -0.555,5.938 h -18.761 v 8.27 h 14.6 v 5.939 h -14.6 v 9.49 h 19.316 l -0.555,5.996 z"
           id="path370" />
        <path
           d="m 340.996,100.892 -9.435,-12.823 h -4.773 v 12.823 h -7.324 V 65.259 h 14.429 c 2.627,0 4.83,0.137 6.604,0.414 1.777,0.277 3.2,0.825 4.272,1.638 1.073,0.815 1.844,1.972 2.304,3.469 0.465,1.5 0.695,3.47 0.695,5.913 0,1.959 -0.138,3.607 -0.417,4.94 -0.278,1.333 -0.738,2.424 -1.385,3.274 -0.647,0.851 -1.502,1.508 -2.555,1.97 -1.054,0.464 -2.358,0.787 -3.912,0.971 l 9.878,13.044 z m -6.991,-18.76 c 1.146,0 2.118,-0.037 2.914,-0.113 0.796,-0.074 1.442,-0.295 1.942,-0.666 0.498,-0.369 0.858,-0.917 1.082,-1.638 0.223,-0.72 0.334,-1.728 0.334,-3.023 0,-1.333 -0.111,-2.369 -0.334,-3.109 -0.224,-0.74 -0.584,-1.286 -1.082,-1.637 -0.5,-0.353 -1.146,-0.564 -1.942,-0.639 -0.795,-0.072 -1.768,-0.11 -2.914,-0.11 h -7.217 v 10.935 z"
           id="path372" />
      </g>
    </g>
    <g
       transform="matrix(0.26458333,0,0,0.26458333,-83.473376,-17.192776)"
       id="g380">
      <path
         d="m 80.824,133.122 c -7.745,0 -15.121,-0.676 -21.92,-2.009 -7.078,-1.39 -13.347,-4.283 -18.633,-8.598 -5.301,-4.32 -9.544,-10.504 -12.613,-18.38 -3.008,-7.733 -4.532,-18.022 -4.532,-30.582 0,-12.562 1.524,-22.852 4.532,-30.581 3.065,-7.872 7.31,-14.055 12.613,-18.383 5.287,-4.314 11.556,-7.206 18.632,-8.598 6.798,-1.333 14.171,-2.009 21.921,-2.009 7.749,0 15.122,0.676 21.916,2.008 7.079,1.393 13.347,4.284 18.634,8.599 5.306,4.333 9.549,10.518 12.61,18.383 3.012,7.727 4.537,18.015 4.537,30.581 0,12.563 -1.525,22.853 -4.537,30.582 -3.063,7.87 -7.308,14.054 -12.612,18.381 -5.284,4.313 -11.553,7.206 -18.632,8.596 -6.798,1.334 -14.173,2.01 -21.916,2.01 z m 0,-113.364 c -7.376,0 -14.378,0.639 -20.809,1.9 -6.133,1.206 -11.549,3.698 -16.093,7.407 -4.521,3.69 -8.185,9.073 -10.881,16.002 -2.748,7.059 -4.14,16.643 -4.14,28.486 0,11.841 1.392,21.425 4.14,28.489 2.699,6.931 6.361,12.313 10.879,15.998 4.546,3.708 9.961,6.199 16.096,7.405 6.434,1.262 13.435,1.901 20.808,1.901 7.371,0 14.372,-0.639 20.804,-1.901 6.136,-1.207 11.551,-3.696 16.094,-7.403 4.523,-3.69 8.183,-9.073 10.882,-16.001 2.75,-7.06 4.143,-16.645 4.143,-28.488 0,-11.844 -1.394,-21.429 -4.143,-28.486 -2.698,-6.925 -6.358,-12.31 -10.882,-16.006 -4.542,-3.706 -9.958,-6.197 -16.094,-7.405 C 95.199,20.397 88.2,19.758 80.824,19.758 Z"
         id="path378" />
    </g>
    <path
       style="stroke-width:0.264583"
       fill="#e85416"
       d="m -56.87693,-0.53143475 c -2.395009,0 -4.343136,-1.94839095 -4.343136,-4.34313485 0,-2.3944792 1.948127,-4.3423417 4.343136,-4.3423417 2.39395,0 4.342341,1.9478625 4.342341,4.3423417 0,2.3947439 -1.948391,4.34313485 -4.342341,4.34313485 z m 0,-7.32287235 c -1.643327,0 -2.980532,1.3372041 -2.980532,2.9797375 0,1.6430629 1.337205,2.9805309 2.980532,2.9805309 1.642798,0 2.979208,-1.337468 2.979208,-2.9805309 0,-1.6425334 -1.33641,-2.9797375 -2.979208,-2.9797375 z"
       id="path382" />
    <g
       transform="matrix(0.26458333,0,0,0.26458333,-83.473376,-17.192776)"
       id="g390">
      <path
         fill="#e3127f"
         d="m 50.224,99.203 c -9.054,0 -16.415,-7.364 -16.415,-16.413 0,-9.05 7.361,-16.414 16.415,-16.414 9.047,0 16.411,7.364 16.411,16.414 0,9.049 -7.364,16.413 -16.411,16.413 z m 0,-27.678 c -6.213,0 -11.266,5.053 -11.266,11.264 0,6.208 5.052,11.264 11.266,11.264 6.207,0 11.26,-5.056 11.26,-11.264 0,-6.21 -5.053,-11.264 -11.26,-11.264 z"
         id="path388" />
    </g>
    <g
       transform="matrix(0.26458333,0,0,0.26458333,-83.473376,-17.192776)"
       id="g394">
      <path
         fill="#52c1dd"
         d="m 81.287,122.893 c -9.049,0 -16.412,-7.364 -16.412,-16.413 0,-9.051 7.363,-16.414 16.412,-16.414 9.052,0 16.415,7.363 16.415,16.414 0,9.049 -7.363,16.413 -16.415,16.413 z m 0,-27.678 c -6.209,0 -11.263,5.053 -11.263,11.264 0,6.208 5.054,11.264 11.263,11.264 6.211,0 11.263,-5.056 11.263,-11.264 0,-6.21 -5.052,-11.264 -11.263,-11.264 z"
         id="path392" />
    </g>
    <g
       transform="matrix(0.26458333,0,0,0.26458333,-83.473376,-17.192776)"
       id="g398">
      <path
         fill="#9e75b2"
         d="m 111.672,99.203 c -9.05,0 -16.413,-7.364 -16.413,-16.413 0,-9.05 7.363,-16.414 16.413,-16.414 9.052,0 16.415,7.364 16.415,16.414 0,9.049 -7.363,16.413 -16.415,16.413 z m 0,-27.678 c -6.209,0 -11.263,5.053 -11.263,11.264 0,6.208 5.054,11.264 11.263,11.264 6.211,0 11.263,-5.056 11.263,-11.264 0,-6.21 -5.052,-11.264 -11.263,-11.264 z"
         id="path396" />
    </g>
    <g
       transform="matrix(0.26458333,0,0,0.26458333,-83.473376,-17.192776)"
       id="g404">
      <g
         id="g402">
        <path
           fill="#bacf10"
           d="m 60.857,62.973 c -9.05,0 -16.414,-7.364 -16.414,-16.415 0,-9.051 7.363,-16.413 16.414,-16.413 9.049,0 16.413,7.363 16.413,16.413 0,9.05 -7.364,16.415 -16.413,16.415 z m 0,-27.677 c -6.211,0 -11.264,5.053 -11.264,11.262 0,6.209 5.053,11.264 11.264,11.264 6.209,0 11.26,-5.055 11.26,-11.264 0,-6.209 -5.05,-11.262 -11.26,-11.262 z"
           id="path400" />
      </g>
    </g>
  </g>
</svg>
